# xmcd
#
# Track frame offsets:
#	150
#	19958
#	37724
#	51860
#	65834
#	80952
#	101699
#	121644
#	137463
#	155546
#	170524
#	191643
#	205010
#
# Disc length: 2952 seconds
#
# Revision: 0
# Processed by: cddbd v1.5.2PL0 Copyright (c) Steve Scherf et al.
# Submitted via: EZCDAudioConverter 7.0.0.1
#
DISCID=ae0b860d
DTITLE=COUNRTY - Mūzikas Izlase #3
DYEAR=1900
DGENRE=
TTITLE0=ILMĀRS DZENIS - Sirdssāpes
TTITLE1=SESTĀ JŪDZE - Nāc Atpakaļ
TTITLE2=H.UŽĀNS - Mans Velns
TTITLE3=KLAIDONIS - Burvīgās Brunetes
TTITLE4=RUBĪNA and VIDZEMNIEKI - Tu Saki Tā
TTITLE5=JUKE BOX - Balto Ceriņu Laiks
TTITLE6=H.UŽĀNS - Ja Tu Mīli Dzīvi Šo
TTITLE7=DAKOTA - Vakariņas 5atā
TTITLE8=LINITA and A.RULLIS - Lūk Jau Zvaigznes
TTITLE9=KLAIDONIS - Brīvdienu Laiks
TTITLE10=LUSTĪGAIS BLŪMĪZERS - Tā Lūk Man Iet
TTITLE11=BORDERTOWN - Asaras
TTITLE12=A.RULLIS and EMBURGAS ZĒNI - Zudušais Laiks
EXTD=
EXTT0=
EXTT1=
EXTT2=
EXTT3=
EXTT4=
EXTT5=
EXTT6=
EXTT7=
EXTT8=
EXTT9=
EXTT10=
EXTT11=
EXTT12=
PLAYORDER=
